<mxfile host="Electron" modified="2023-10-31T21:28:38.535Z" agent="Mozilla/5.0 (Macintosh; Intel Mac OS X 10_15_7) AppleWebKit/537.36 (KHTML, like Gecko) draw.io/21.2.8 Chrome/112.0.5615.165 Electron/24.2.0 Safari/537.36" etag="S2QuGk3ynGeODPDGLpzP" version="21.2.8" type="device">
  <diagram name="Страница 1" id="PQlipIyWXcN0pe2dkzAs">
    <mxGraphModel dx="1114" dy="1149" grid="1" gridSize="10" guides="1" tooltips="1" connect="1" arrows="1" fold="1" page="0" pageScale="1" pageWidth="827" pageHeight="1169" math="0" shadow="0">
      <root>
        <mxCell id="0" />
        <mxCell id="1" parent="0" />
        <mxCell id="lHeAeu1LF_s8bbnBfsLl-22" style="edgeStyle=none;curved=1;rounded=0;orthogonalLoop=1;jettySize=auto;html=1;entryX=0.5;entryY=0;entryDx=0;entryDy=0;fontSize=12;startSize=8;endSize=8;" edge="1" parent="1" source="lHeAeu1LF_s8bbnBfsLl-1" target="lHeAeu1LF_s8bbnBfsLl-20">
          <mxGeometry relative="1" as="geometry" />
        </mxCell>
        <mxCell id="lHeAeu1LF_s8bbnBfsLl-1" value="" style="ellipse;html=1;shape=startState;fillColor=#000000;strokeColor=default;fontSize=16;" vertex="1" parent="1">
          <mxGeometry x="185" y="-170" width="30" height="30" as="geometry" />
        </mxCell>
        <mxCell id="lHeAeu1LF_s8bbnBfsLl-3" value="" style="edgeStyle=none;curved=1;rounded=0;orthogonalLoop=1;jettySize=auto;html=1;fontSize=12;startSize=8;endSize=8;" edge="1" parent="1" source="lHeAeu1LF_s8bbnBfsLl-4" target="lHeAeu1LF_s8bbnBfsLl-5">
          <mxGeometry relative="1" as="geometry" />
        </mxCell>
        <mxCell id="lHeAeu1LF_s8bbnBfsLl-4" value="Ввод x" style="html=1;whiteSpace=wrap;fontSize=16;rounded=1;arcSize=50;" vertex="1" parent="1">
          <mxGeometry x="145" width="110" height="30" as="geometry" />
        </mxCell>
        <mxCell id="lHeAeu1LF_s8bbnBfsLl-5" value="" style="rhombus;whiteSpace=wrap;html=1;fontSize=16;rounded=0;arcSize=50;" vertex="1" parent="1">
          <mxGeometry x="180" y="60" width="40" height="40" as="geometry" />
        </mxCell>
        <mxCell id="lHeAeu1LF_s8bbnBfsLl-6" value="" style="edgeStyle=none;curved=1;rounded=0;orthogonalLoop=1;jettySize=auto;html=1;fontSize=12;startSize=8;endSize=8;" edge="1" parent="1" source="lHeAeu1LF_s8bbnBfsLl-7" target="lHeAeu1LF_s8bbnBfsLl-10">
          <mxGeometry relative="1" as="geometry" />
        </mxCell>
        <mxCell id="lHeAeu1LF_s8bbnBfsLl-7" value="Вывод &quot;Ошибка&quot;" style="html=1;whiteSpace=wrap;fontSize=16;rounded=1;arcSize=50;" vertex="1" parent="1">
          <mxGeometry x="245" y="140" width="180" height="30" as="geometry" />
        </mxCell>
        <mxCell id="lHeAeu1LF_s8bbnBfsLl-8" value="[ x = 0 ]" style="text;html=1;align=center;verticalAlign=middle;resizable=0;points=[];autosize=1;strokeColor=none;fillColor=none;fontSize=16;" vertex="1" parent="1">
          <mxGeometry x="245" y="50" width="80" height="30" as="geometry" />
        </mxCell>
        <mxCell id="lHeAeu1LF_s8bbnBfsLl-9" value="" style="edgeStyle=segmentEdgeStyle;endArrow=none;html=1;curved=0;rounded=0;endSize=8;startSize=8;sourcePerimeterSpacing=0;targetPerimeterSpacing=0;fontSize=12;endFill=0;" edge="1" parent="1">
          <mxGeometry width="140" relative="1" as="geometry">
            <mxPoint x="180" y="80" as="sourcePoint" />
            <mxPoint x="80" y="280" as="targetPoint" />
            <Array as="points">
              <mxPoint x="80" y="80" />
              <mxPoint x="80" y="140" />
            </Array>
          </mxGeometry>
        </mxCell>
        <mxCell id="lHeAeu1LF_s8bbnBfsLl-10" value="exit(1)" style="html=1;whiteSpace=wrap;fontSize=16;rounded=1;arcSize=50;" vertex="1" parent="1">
          <mxGeometry x="295" y="210" width="80" height="30" as="geometry" />
        </mxCell>
        <mxCell id="lHeAeu1LF_s8bbnBfsLl-11" style="edgeStyle=none;curved=1;rounded=0;orthogonalLoop=1;jettySize=auto;html=1;fontSize=12;startSize=8;endSize=8;entryX=0;entryY=0.5;entryDx=0;entryDy=0;" edge="1" parent="1" target="lHeAeu1LF_s8bbnBfsLl-12">
          <mxGeometry relative="1" as="geometry">
            <mxPoint x="120" y="260" as="targetPoint" />
            <mxPoint x="80" y="280" as="sourcePoint" />
          </mxGeometry>
        </mxCell>
        <mxCell id="lHeAeu1LF_s8bbnBfsLl-14" style="edgeStyle=none;curved=1;rounded=0;orthogonalLoop=1;jettySize=auto;html=1;fontSize=12;startSize=8;endSize=8;" edge="1" parent="1" source="lHeAeu1LF_s8bbnBfsLl-12">
          <mxGeometry relative="1" as="geometry">
            <mxPoint x="200" y="320" as="targetPoint" />
          </mxGeometry>
        </mxCell>
        <mxCell id="lHeAeu1LF_s8bbnBfsLl-12" value="" style="rhombus;whiteSpace=wrap;html=1;fontSize=16;rounded=0;arcSize=50;" vertex="1" parent="1">
          <mxGeometry x="180" y="260" width="40" height="40" as="geometry" />
        </mxCell>
        <mxCell id="lHeAeu1LF_s8bbnBfsLl-13" value="" style="edgeStyle=segmentEdgeStyle;endArrow=classic;html=1;curved=0;rounded=0;endSize=8;startSize=8;sourcePerimeterSpacing=0;targetPerimeterSpacing=0;fontSize=12;entryX=0.5;entryY=0;entryDx=0;entryDy=0;" edge="1" parent="1" target="lHeAeu1LF_s8bbnBfsLl-7">
          <mxGeometry width="140" relative="1" as="geometry">
            <mxPoint x="220" y="80" as="sourcePoint" />
            <mxPoint x="410" as="targetPoint" />
            <Array as="points">
              <mxPoint x="335" y="80" />
            </Array>
          </mxGeometry>
        </mxCell>
        <mxCell id="lHeAeu1LF_s8bbnBfsLl-15" value="a := x" style="html=1;whiteSpace=wrap;fontSize=16;rounded=1;arcSize=50;" vertex="1" parent="1">
          <mxGeometry x="160" y="320" width="80" height="30" as="geometry" />
        </mxCell>
        <mxCell id="lHeAeu1LF_s8bbnBfsLl-16" value="S := a" style="html=1;whiteSpace=wrap;fontSize=16;rounded=1;arcSize=50;" vertex="1" parent="1">
          <mxGeometry x="160" y="370" width="80" height="30" as="geometry" />
        </mxCell>
        <mxCell id="lHeAeu1LF_s8bbnBfsLl-17" style="edgeStyle=none;curved=1;rounded=0;orthogonalLoop=1;jettySize=auto;html=1;fontSize=12;startSize=8;endSize=8;" edge="1" parent="1">
          <mxGeometry relative="1" as="geometry">
            <mxPoint x="200" y="370" as="targetPoint" />
            <mxPoint x="200" y="350" as="sourcePoint" />
          </mxGeometry>
        </mxCell>
        <mxCell id="lHeAeu1LF_s8bbnBfsLl-27" style="edgeStyle=none;curved=1;rounded=0;orthogonalLoop=1;jettySize=auto;html=1;entryX=0.5;entryY=0;entryDx=0;entryDy=0;fontSize=12;startSize=8;endSize=8;" edge="1" parent="1" source="lHeAeu1LF_s8bbnBfsLl-18" target="lHeAeu1LF_s8bbnBfsLl-26">
          <mxGeometry relative="1" as="geometry" />
        </mxCell>
        <mxCell id="lHeAeu1LF_s8bbnBfsLl-18" value="k := 1" style="html=1;whiteSpace=wrap;fontSize=16;rounded=1;arcSize=50;" vertex="1" parent="1">
          <mxGeometry x="160" y="420" width="80" height="30" as="geometry" />
        </mxCell>
        <mxCell id="lHeAeu1LF_s8bbnBfsLl-19" style="edgeStyle=none;curved=1;rounded=0;orthogonalLoop=1;jettySize=auto;html=1;fontSize=12;startSize=8;endSize=8;" edge="1" parent="1">
          <mxGeometry relative="1" as="geometry">
            <mxPoint x="200" y="420" as="targetPoint" />
            <mxPoint x="200" y="400" as="sourcePoint" />
          </mxGeometry>
        </mxCell>
        <mxCell id="lHeAeu1LF_s8bbnBfsLl-23" style="edgeStyle=none;curved=1;rounded=0;orthogonalLoop=1;jettySize=auto;html=1;entryX=0.5;entryY=0;entryDx=0;entryDy=0;fontSize=12;startSize=8;endSize=8;" edge="1" parent="1" source="lHeAeu1LF_s8bbnBfsLl-20" target="lHeAeu1LF_s8bbnBfsLl-21">
          <mxGeometry relative="1" as="geometry" />
        </mxCell>
        <mxCell id="lHeAeu1LF_s8bbnBfsLl-20" value="EULER = 0.5772156649015328606" style="html=1;whiteSpace=wrap;fontSize=16;rounded=1;arcSize=50;" vertex="1" parent="1">
          <mxGeometry x="40" y="-120" width="320" height="30" as="geometry" />
        </mxCell>
        <mxCell id="lHeAeu1LF_s8bbnBfsLl-24" style="edgeStyle=none;curved=1;rounded=0;orthogonalLoop=1;jettySize=auto;html=1;entryX=0.5;entryY=0;entryDx=0;entryDy=0;fontSize=12;startSize=8;endSize=8;" edge="1" parent="1" source="lHeAeu1LF_s8bbnBfsLl-21" target="lHeAeu1LF_s8bbnBfsLl-4">
          <mxGeometry relative="1" as="geometry" />
        </mxCell>
        <mxCell id="lHeAeu1LF_s8bbnBfsLl-21" value="EPS = 1e-10" style="html=1;whiteSpace=wrap;fontSize=16;rounded=1;arcSize=50;" vertex="1" parent="1">
          <mxGeometry x="140" y="-60" width="120" height="30" as="geometry" />
        </mxCell>
        <mxCell id="lHeAeu1LF_s8bbnBfsLl-26" value="" style="rhombus;whiteSpace=wrap;html=1;fontSize=16;rounded=0;arcSize=50;" vertex="1" parent="1">
          <mxGeometry x="180" y="480" width="40" height="40" as="geometry" />
        </mxCell>
        <mxCell id="lHeAeu1LF_s8bbnBfsLl-28" value="" style="rhombus;whiteSpace=wrap;html=1;fontSize=16;rounded=0;arcSize=50;" vertex="1" parent="1">
          <mxGeometry x="180" y="550" width="40" height="40" as="geometry" />
        </mxCell>
        <mxCell id="lHeAeu1LF_s8bbnBfsLl-29" style="edgeStyle=none;curved=1;rounded=0;orthogonalLoop=1;jettySize=auto;html=1;entryX=0.5;entryY=0;entryDx=0;entryDy=0;fontSize=12;startSize=8;endSize=8;" edge="1" target="lHeAeu1LF_s8bbnBfsLl-28" parent="1">
          <mxGeometry relative="1" as="geometry">
            <mxPoint x="200" y="520" as="sourcePoint" />
          </mxGeometry>
        </mxCell>
        <mxCell id="lHeAeu1LF_s8bbnBfsLl-30" value="[ |a| &amp;gt; EPS ]" style="text;html=1;align=center;verticalAlign=middle;resizable=0;points=[];autosize=1;strokeColor=none;fillColor=none;fontSize=16;" vertex="1" parent="1">
          <mxGeometry x="198" y="585" width="110" height="30" as="geometry" />
        </mxCell>
        <mxCell id="lHeAeu1LF_s8bbnBfsLl-32" style="edgeStyle=none;curved=1;rounded=0;orthogonalLoop=1;jettySize=auto;html=1;fontSize=12;startSize=8;endSize=8;entryX=0.5;entryY=0;entryDx=0;entryDy=0;" edge="1" parent="1" target="lHeAeu1LF_s8bbnBfsLl-33">
          <mxGeometry relative="1" as="geometry">
            <mxPoint x="200" y="610" as="targetPoint" />
            <mxPoint x="200" y="590" as="sourcePoint" />
          </mxGeometry>
        </mxCell>
        <mxCell id="lHeAeu1LF_s8bbnBfsLl-33" value="a *= x * k / (k + 1) ** 2" style="html=1;whiteSpace=wrap;fontSize=16;rounded=1;arcSize=50;" vertex="1" parent="1">
          <mxGeometry x="100" y="620" width="200" height="30" as="geometry" />
        </mxCell>
        <mxCell id="lHeAeu1LF_s8bbnBfsLl-34" value="S += a" style="html=1;whiteSpace=wrap;fontSize=16;rounded=1;arcSize=50;" vertex="1" parent="1">
          <mxGeometry x="150" y="670" width="100" height="30" as="geometry" />
        </mxCell>
        <mxCell id="lHeAeu1LF_s8bbnBfsLl-35" style="edgeStyle=none;curved=1;rounded=0;orthogonalLoop=1;jettySize=auto;html=1;fontSize=12;startSize=8;endSize=8;" edge="1" parent="1">
          <mxGeometry relative="1" as="geometry">
            <mxPoint x="200" y="670" as="targetPoint" />
            <mxPoint x="200" y="650" as="sourcePoint" />
          </mxGeometry>
        </mxCell>
        <mxCell id="lHeAeu1LF_s8bbnBfsLl-36" value="k += 1" style="html=1;whiteSpace=wrap;fontSize=16;rounded=1;arcSize=50;" vertex="1" parent="1">
          <mxGeometry x="150" y="720" width="100" height="30" as="geometry" />
        </mxCell>
        <mxCell id="lHeAeu1LF_s8bbnBfsLl-37" style="edgeStyle=none;curved=1;rounded=0;orthogonalLoop=1;jettySize=auto;html=1;fontSize=12;startSize=8;endSize=8;" edge="1" parent="1">
          <mxGeometry relative="1" as="geometry">
            <mxPoint x="200" y="720" as="targetPoint" />
            <mxPoint x="200" y="700" as="sourcePoint" />
          </mxGeometry>
        </mxCell>
        <mxCell id="lHeAeu1LF_s8bbnBfsLl-38" value="" style="edgeStyle=segmentEdgeStyle;endArrow=classic;html=1;curved=0;rounded=0;endSize=8;startSize=8;sourcePerimeterSpacing=0;targetPerimeterSpacing=0;fontSize=12;exitX=0.5;exitY=1;exitDx=0;exitDy=0;entryX=0;entryY=0.5;entryDx=0;entryDy=0;" edge="1" parent="1" source="lHeAeu1LF_s8bbnBfsLl-36" target="lHeAeu1LF_s8bbnBfsLl-26">
          <mxGeometry width="140" relative="1" as="geometry">
            <mxPoint x="240" y="700" as="sourcePoint" />
            <mxPoint x="60" y="500" as="targetPoint" />
            <Array as="points">
              <mxPoint x="200" y="770" />
              <mxPoint x="60" y="770" />
              <mxPoint x="60" y="500" />
            </Array>
          </mxGeometry>
        </mxCell>
        <mxCell id="lHeAeu1LF_s8bbnBfsLl-40" value="" style="edgeStyle=segmentEdgeStyle;endArrow=classic;html=1;curved=0;rounded=0;endSize=8;startSize=8;sourcePerimeterSpacing=0;targetPerimeterSpacing=0;fontSize=12;entryX=0.5;entryY=0;entryDx=0;entryDy=0;" edge="1" parent="1" target="lHeAeu1LF_s8bbnBfsLl-41">
          <mxGeometry width="140" relative="1" as="geometry">
            <mxPoint x="220" y="570" as="sourcePoint" />
            <mxPoint x="380" y="620" as="targetPoint" />
            <Array as="points">
              <mxPoint x="440" y="570" />
              <mxPoint x="440" y="620" />
            </Array>
          </mxGeometry>
        </mxCell>
        <mxCell id="lHeAeu1LF_s8bbnBfsLl-42" style="edgeStyle=none;curved=1;rounded=0;orthogonalLoop=1;jettySize=auto;html=1;exitX=0.5;exitY=1;exitDx=0;exitDy=0;fontSize=12;startSize=8;endSize=8;" edge="1" parent="1" source="lHeAeu1LF_s8bbnBfsLl-41">
          <mxGeometry relative="1" as="geometry">
            <mxPoint x="440" y="690" as="targetPoint" />
          </mxGeometry>
        </mxCell>
        <mxCell id="lHeAeu1LF_s8bbnBfsLl-41" value="Вывод EULER + log|x| + S" style="html=1;whiteSpace=wrap;fontSize=16;rounded=1;arcSize=50;" vertex="1" parent="1">
          <mxGeometry x="335" y="620" width="210" height="30" as="geometry" />
        </mxCell>
        <mxCell id="lHeAeu1LF_s8bbnBfsLl-43" value="" style="ellipse;html=1;shape=endState;fillColor=#000000;strokeColor=#000000;fontSize=16;" vertex="1" parent="1">
          <mxGeometry x="425" y="690" width="30" height="30" as="geometry" />
        </mxCell>
        <mxCell id="lHeAeu1LF_s8bbnBfsLl-44" value="" style="edgeStyle=segmentEdgeStyle;endArrow=classic;html=1;curved=0;rounded=0;endSize=8;startSize=8;sourcePerimeterSpacing=0;targetPerimeterSpacing=0;fontSize=12;exitX=1;exitY=0.5;exitDx=0;exitDy=0;" edge="1" parent="1" source="lHeAeu1LF_s8bbnBfsLl-10">
          <mxGeometry width="140" relative="1" as="geometry">
            <mxPoint x="410" y="230" as="sourcePoint" />
            <mxPoint x="440" y="670" as="targetPoint" />
            <Array as="points">
              <mxPoint x="600" y="225" />
              <mxPoint x="600" y="670" />
            </Array>
          </mxGeometry>
        </mxCell>
      </root>
    </mxGraphModel>
  </diagram>
</mxfile>
